{
  "accessors": [
    {
      "bufferView": 2,
      "componentType": 5126,
      "count": 942,
      "max": [
        1.5117073059082031,
        1.5117073059082031,
        1.9392105340957642
      ],
      "min": [
        -1.5117077827453613,
        -1.5117080211639404,
        -2.2796554565429688
      ],
      "type": "VEC3"
    },
    {
      "bufferView": 2,
      "byteOffset": 11304,
      "componentType": 5126,
      "count": 942,
      "max": [
        0.9963902235031128,
        0.996390163898468,
        0.9366398453712463
      ],
      "min": [
        -0.996390163898468,
        -0.9963902235031128,
        -0.9993852376937866
      ],
      "type": "VEC3"
    },
    {
      "bufferView": 1,
      "componentType": 5126,
      "count": 942,
      "max": [
        0.991448163986206,
        0.986077070236206
      ],
      "min": [
        0.01601259410381317,
        0.01128716953098774
      ],
      "type": "VEC2"
    },
    {
      "bufferView": 0,
      "componentType": 5125,
      "count": 4596,
      "type": "SCALAR"
    },
    {
      "bufferView": 2,
      "byteOffset": 22608,
      "componentType": 5126,
      "count": 1278,
      "max": [
        1.5559159517288208,
        1.5322614908218384,
        0.38995563983917236
      ],
      "min": [
        -1.5491552352905273,
        -1.5728098154067993,
        -0.5409189462661743
      ],
      "type": "VEC3"
    },
    {
      "bufferView": 2,
      "byteOffset": 37944,
      "componentType": 5126,
      "count": 1278,
      "max": [
        1.0,
        1.0,
        1.0
      ],
      "min": [
        -1.0,
        -1.0,
        -0.9999973773956299
      ],
      "type": "VEC3"
    },
    {
      "bufferView": 1,
      "byteOffset": 7536,
      "componentType": 5126,
      "count": 1278,
      "max": [
        0.8799473643302917,
        0.8211788535118103
      ],
      "min": [
        0.5796725153923035,
        0.5487295985221863
      ],
      "type": "VEC2"
    },
    {
      "bufferView": 0,
      "byteOffset": 18384,
      "componentType": 5125,
      "count": 5400,
      "type": "SCALAR"
    }
  ],
  "asset": {
    "extras": {
      "author": "Crazy_8 (https://sketchfab.com/korboleevd)",
      "license": "CC-BY-4.0 (http://creativecommons.org/licenses/by/4.0/)",
      "source": "https://sketchfab.com/3d-models/paper-coffee-cup-e77b65a844324452a385bf4c1275515f",
      "title": "Paper Coffee Cup"
    },
    "generator": "Sketchfab-12.67.0",
    "version": "2.0"
  },
  "bufferViews": [
    {
      "buffer": 0,
      "byteLength": 39984,
      "name": "floatBufferViews",
      "target": 34963
    },
    {
      "buffer": 0,
      "byteLength": 17760,
      "byteOffset": 39984,
      "byteStride": 8,
      "name": "floatBufferViews",
      "target": 34962
    },
    {
      "buffer": 0,
      "byteLength": 53280,
      "byteOffset": 57744,
      "byteStride": 12,
      "name": "floatBufferViews",
      "target": 34962
    }
  ],
  "buffers": [
    {
      "byteLength": 111024,
      "uri": "scene.bin"
    }
  ],
  "images": [
    {
      "uri": "textures/material_baseColor.png"
    }
  ],
  "materials": [
    {
      "doubleSided": true,
      "name": "material",
      "pbrMetallicRoughness": {
        "baseColorTexture": {
          "index": 0
        },
        "metallicFactor": 0.0,
        "roughnessFactor": 0.9010654490106544
      }
    },
    {
      "doubleSided": true,
      "name": "material_1",
      "pbrMetallicRoughness": {
        "baseColorTexture": {
          "index": 0
        },
        "metallicFactor": 0.0,
        "roughnessFactor": 0.2800608828006088
      }
    }
  ],
  "meshes": [
    {
      "name": "cup_cup_0",
      "primitives": [
        {
          "attributes": {
            "NORMAL": 1,
            "POSITION": 0,
            "TEXCOORD_0": 2
          },
          "indices": 3,
          "material": 0,
          "mode": 4
        }
      ]
    },
    {
      "name": "lid_lid_0",
      "primitives": [
        {
          "attributes": {
            "NORMAL": 5,
            "POSITION": 4,
            "TEXCOORD_0": 6
          },
          "indices": 7,
          "material": 1,
          "mode": 4
        }
      ]
    }
  ],
  "nodes": [
    {
      "children": [
        1
      ],
      "matrix": [
        1.0,
        0.0,
        0.0,
        0.0,
        0.0,
        2.220446049250313e-16,
        -1.0,
        0.0,
        0.0,
        1.0,
        2.220446049250313e-16,
        0.0,
        0.0,
        0.0,
        0.0,
        1.0
      ],
      "name": "Sketchfab_model"
    },
    {
      "children": [
        2
      ],
      "matrix": [
        1.0,
        0.0,
        0.0,
        0.0,
        0.0,
        0.0,
        1.0,
        0.0,
        0.0,
        -1.0,
        0.0,
        0.0,
        0.0,
        0.0,
        0.0,
        1.0
      ],
      "name": "Paper_coffee_cup.fbx"
    },
    {
      "children": [
        3,
        5
      ],
      "name": "RootNode"
    },
    {
      "children": [
        4
      ],
      "matrix": [
        93.94643779363962,
        5.551115546642256e-15,
        -34.26468082099651,
        0.0,
        -34.264680820996475,
        -4.371139317596455e-06,
        -93.94643779363953,
        0.0,
        -1.4977567075469267e-06,
        99.99999999999991,
        -4.10652905014075e-06,
        0.0,
        2.5590152740478516,
        17.30630111694336,
        -1.5768024921417236,
        1.0
      ],
      "name": "cup"
    },
    {
      "mesh": 0,
      "name": "cup_cup_0"
    },
    {
      "children": [
        6
      ],
      "matrix": [
        97.72837604845377,
        -2.7755575615628914e-15,
        21.19350171472398,
        0.0,
        21.193501714723958,
        -4.371138984105016e-06,
        -97.72837604845368,
        0.0,
        9.263974157236454e-07,
        99.99999999999991,
        -4.271843145886578e-06,
        0.0,
        2.6583187580108643,
        243.3302459716797,
        -3.629762649536133,
        1.0
      ],
      "name": "lid"
    },
    {
      "mesh": 1,
      "name": "lid_lid_0"
    }
  ],
  "samplers": [
    {
      "magFilter": 9729,
      "minFilter": 9987,
      "wrapS": 10497,
      "wrapT": 10497
    }
  ],
  "scene": 0,
  "scenes": [
    {
      "name": "Sketchfab_Scene",
      "nodes": [
        0
      ]
    }
  ],
  "textures": [
    {
      "sampler": 0,
      "source": 0
    }
  ]
}
